<svg width="109" height="20" viewBox="0 0 109 20" fill="none" xmlns="http://www.w3.org/2000/svg">
<g clip-path="url(#clip0_3001_16491)">
<path d="M32.6337 17.1666H29.6514L34.1961 3.9917H37.7854L42.3248 17.1666H39.3425L36.0436 7.00569H35.9433L32.6337 17.1666ZM32.449 11.9885H39.5009V14.1632H32.449V11.9885Z" fill="white"/>
<path d="M43.7441 17.1662V3.99658H46.4836V8.94771H46.5681C46.6895 8.68381 46.8637 8.40931 47.0906 8.13487C47.3176 7.86038 47.6185 7.62815 47.9932 7.43813C48.3627 7.25334 48.8272 7.15833 49.3815 7.15833C50.0993 7.15833 50.7644 7.34835 51.3767 7.72316C51.9837 8.09791 52.4746 8.66268 52.8388 9.41223C53.203 10.167 53.3878 11.1066 53.3878 12.2414C53.3878 13.3447 53.2083 14.2736 52.8546 15.0284C52.501 15.7833 52.0207 16.3586 51.4136 16.7439C50.8067 17.1345 50.1257 17.3245 49.3762 17.3245C48.8431 17.3245 48.3944 17.2348 48.0197 17.0606C47.6501 16.8865 47.344 16.6648 47.1117 16.3956C46.8742 16.1264 46.6947 15.8572 46.5733 15.5827H46.452V17.1662H43.7441ZM46.4308 12.2309C46.4308 12.8168 46.51 13.3288 46.6737 13.7669C46.8372 14.205 47.0748 14.5428 47.3809 14.7857C47.6871 15.0284 48.0672 15.1499 48.5052 15.1499C48.9486 15.1499 49.3287 15.0284 49.6348 14.7804C49.941 14.5323 50.1785 14.1892 50.3368 13.7511C50.4952 13.313 50.5797 12.8063 50.5797 12.2309C50.5797 11.6608 50.5005 11.1594 50.3421 10.7266C50.1838 10.2937 49.9515 9.95593 49.6401 9.7078C49.334 9.46503 48.9539 9.34359 48.4999 9.34359C48.0566 9.34359 47.6765 9.45974 47.3704 9.69726C47.0642 9.93479 46.8267 10.2673 46.6684 10.7002C46.51 11.133 46.4308 11.6397 46.4308 12.2309Z" fill="white"/>
<path d="M63.2585 10.1045L60.7513 10.2575C60.7092 10.0411 60.614 9.8511 60.4768 9.67691C60.3347 9.50272 60.1498 9.3655 59.9228 9.25989C59.6958 9.15435 59.4213 9.10154 59.1046 9.10154C58.6825 9.10154 58.3236 9.19131 58.0328 9.37074C57.7426 9.55023 57.5951 9.78775 57.5951 10.0833C57.5951 10.3209 57.6902 10.5162 57.8799 10.6798C58.0702 10.8434 58.3923 10.9754 58.8511 11.0704L60.6405 11.4293C61.6015 11.6246 62.3192 11.9413 62.7888 12.3794C63.2585 12.8176 63.4963 13.3929 63.4963 14.1055C63.4963 14.7547 63.306 15.3195 62.9261 15.8104C62.5462 16.3013 62.029 16.6814 61.3691 16.9506C60.7092 17.225 59.9541 17.357 59.0943 17.357C57.7848 17.357 56.7449 17.0825 55.9692 16.5389C55.1933 15.9899 54.7393 15.2456 54.6074 14.3061L57.3049 14.1636C57.3838 14.5647 57.5843 14.8656 57.8955 15.0714C58.2074 15.2773 58.6084 15.3829 59.0991 15.3829C59.5796 15.3829 59.965 15.2879 60.2606 15.1031C60.5562 14.9184 60.7037 14.6755 60.7092 14.38C60.7037 14.1319 60.5984 13.926 60.3925 13.7677C60.1865 13.6093 59.8698 13.4827 59.4423 13.3982L57.7324 13.0551C56.766 12.8598 56.0484 12.5272 55.5786 12.0522C55.1089 11.5771 54.8766 10.9701 54.8766 10.2311C54.8766 9.59773 55.0508 9.0488 55.3939 8.58958C55.737 8.13035 56.2279 7.77668 56.8557 7.52862C57.4843 7.28049 58.2231 7.15381 59.0678 7.15381C60.3136 7.15381 61.3004 7.41777 62.0181 7.94557C62.7202 8.47873 63.1374 9.19655 63.2585 10.1045Z" fill="white"/>
<path d="M66.4264 6.01189C66.02 6.01189 65.6714 5.87467 65.3812 5.60547C65.0909 5.33097 64.9482 5.00373 64.9482 4.62369C64.9482 4.24364 65.0909 3.92164 65.3812 3.64714C65.6714 3.3727 66.02 3.24072 66.4264 3.24072C66.8328 3.24072 67.1808 3.37794 67.4716 3.64714C67.7619 3.92164 67.9046 4.24364 67.9046 4.62369C67.9046 5.00373 67.7619 5.33097 67.4716 5.60547C67.1808 5.87991 66.8328 6.01189 66.4264 6.01189ZM65.0488 17.1652V7.28924H67.7883V17.1704H65.0488V17.1652Z" fill="white"/>
<path d="M72.555 11.4553V17.1666H69.8154V7.29061H72.4279V9.03249H72.5442C72.7603 8.45718 73.13 8.0032 73.6424 7.66542C74.1542 7.32758 74.7822 7.15869 75.5161 7.15869C76.2019 7.15869 76.7986 7.30645 77.3104 7.60732C77.8228 7.90819 78.2183 8.33574 78.4983 8.88997C78.7777 9.4442 78.9204 10.1093 78.9204 10.8747V17.1666H76.1808V11.3656C76.1863 10.7585 76.0333 10.2888 75.7166 9.94569C75.4053 9.60255 74.9724 9.43366 74.4233 9.43366C74.0536 9.43366 73.7321 9.51284 73.4467 9.67119C73.1673 9.82955 72.9451 10.0618 72.7922 10.3626C72.6393 10.6688 72.5598 11.033 72.555 11.4553Z" fill="white"/>
<path d="M86.1665 7.2904V9.34898H80.2178V7.2904H86.1665ZM81.5689 4.92041H84.3084V14.1312C84.3084 14.3846 84.3452 14.5799 84.4246 14.7171C84.5035 14.8543 84.6089 14.9546 84.7516 15.0074C84.8889 15.0655 85.0526 15.0919 85.2375 15.0919C85.3639 15.0919 85.4958 15.0813 85.6228 15.055C85.7493 15.0338 85.8498 15.0127 85.9185 15.0022L86.3508 17.0396C86.2135 17.0819 86.0184 17.1346 85.7703 17.1927C85.5223 17.2508 85.2212 17.2877 84.8624 17.2983C84.2025 17.3246 83.622 17.2349 83.1313 17.0344C82.6352 16.8337 82.2499 16.5223 81.9753 16.0948C81.7007 15.6725 81.5635 15.1341 81.5689 14.4849V4.92041Z" fill="white"/>
<path d="M90.7337 11.455V17.1662H87.9941V3.99658H90.6542V9.03218H90.7704C90.9926 8.45158 91.3514 7.99236 91.853 7.65982C92.3491 7.32728 92.9717 7.16363 93.7267 7.16363C94.4125 7.16363 95.0092 7.31144 95.5264 7.61231C96.0382 7.90788 96.4398 8.33543 96.7246 8.88967C97.01 9.4439 97.1521 10.109 97.1467 10.8796V17.1715H94.4077V11.3653C94.4125 10.7582 94.2596 10.2832 93.9483 9.94533C93.637 9.60755 93.2041 9.4386 92.6448 9.4386C92.2697 9.4386 91.9427 9.51778 91.6573 9.67613C91.3725 9.83448 91.151 10.0668 90.9872 10.3676C90.818 10.6685 90.7391 11.0327 90.7337 11.455Z" fill="white"/>
<path d="M103.904 17.2036C102.885 17.2036 102.014 16.9978 101.281 16.5808C100.552 16.1691 99.9875 15.5779 99.5913 14.8178C99.1957 14.0577 99 13.1551 99 12.1153C99 11.0965 99.1957 10.2044 99.5913 9.43911C99.9875 8.67372 100.541 8.07199 101.26 7.64443C101.977 7.21688 102.822 7.00049 103.788 7.00049C104.437 7.00049 105.049 7.10604 105.609 7.31189C106.173 7.51775 106.665 7.83446 107.087 8.24617C107.509 8.66319 107.836 9.18575 108.074 9.81386C108.311 10.442 108.428 11.1757 108.428 12.015V12.7697H100.087V11.0701H105.852C105.852 10.6743 105.767 10.3259 105.593 10.0197C105.419 9.71355 105.187 9.47602 104.88 9.30183C104.58 9.12765 104.226 9.04323 103.83 9.04323C103.413 9.04323 103.049 9.13824 102.727 9.32827C102.405 9.51829 102.157 9.77165 101.977 10.0936C101.798 10.4156 101.703 10.7693 101.703 11.1599V12.775C101.703 13.2659 101.793 13.6882 101.977 14.0419C102.162 14.3955 102.415 14.67 102.753 14.8653C103.086 15.0606 103.481 15.1556 103.941 15.1556C104.247 15.1556 104.521 15.1134 104.775 15.0289C105.028 14.9445 105.244 14.8125 105.424 14.6436C105.604 14.4747 105.741 14.2636 105.836 14.0155L108.369 14.1844C108.243 14.7914 107.979 15.3245 107.583 15.7784C107.187 16.2324 106.675 16.5808 106.052 16.8342C105.44 17.0769 104.717 17.2036 103.904 17.2036Z" fill="white"/>
<path d="M25.3348 18.4307L22.3419 19.6342L22.2681 19.6659C22.115 19.7186 21.9461 19.7556 21.7719 19.7556H18.9004C18.647 19.7556 18.4043 19.7028 18.1773 19.6078C17.8025 19.4494 17.4805 19.175 17.2694 18.8108L17.1533 18.6101L13.0625 11.5266L14.076 9.78468C14.4718 9.09847 15.4642 9.09847 15.86 9.78468L20.3572 17.5756C20.6529 18.0876 21.1648 18.4254 21.7402 18.5046H21.7455C21.8247 18.5151 21.9091 18.5204 21.9936 18.5204H24.865C25.0286 18.5151 25.1923 18.4888 25.3348 18.4307Z" fill="#006258"/>
<path d="M13.2409 1.06299C12.787 1.26355 12.3805 1.61192 12.1008 2.09228L12.0111 2.24533L6.65349 11.5354L3.85066 16.3915C3.78731 16.497 3.74511 16.6079 3.71344 16.7187V16.724C3.49698 17.4841 3.97204 18.2917 4.74273 18.4764H4.74797C4.85357 18.5029 4.96442 18.5134 5.08051 18.5134H6.66403H7.94668C8.15784 18.5134 8.3637 18.4764 8.55372 18.4131L5.58199 19.606C5.355 19.7011 5.11218 19.7539 4.85881 19.7539H1.98738C1.52288 19.7539 1.13228 19.5374 0.878913 19.2207C0.878913 19.2207 0.878913 19.2207 0.878913 19.2155C0.541092 18.7879 0.451361 18.1809 0.757511 17.6425L9.01824 3.32743C9.30851 2.83124 9.72553 2.48816 10.19 2.29284L10.2639 2.26117L13.2409 1.06299Z" fill="#006258"/>
<path d="M24.622 19.6696C24.469 19.7276 24.3106 19.754 24.1417 19.754H21.2703C21.1858 19.754 21.1066 19.7487 21.0274 19.7382H21.0221C20.4468 19.6643 19.9348 19.3212 19.6392 18.8145L15.142 11.0235C14.7461 10.3426 13.7591 10.3373 13.3632 11.0182L10.3703 16.2017L8.86068 18.8092C8.63898 19.1998 8.28537 19.4901 7.87366 19.6379L7.83669 19.6484C7.64137 19.7171 7.43551 19.7487 7.22965 19.7487H5.947H4.35824C4.24209 19.7487 4.13124 19.7382 4.0257 19.7118H4.0204C3.84091 19.6696 3.67732 19.5904 3.5295 19.4848C3.06498 19.1523 2.82746 18.54 2.99111 17.9594V17.9541C3.02278 17.8432 3.06498 17.7324 3.12833 17.6268L5.93116 12.7707L12.0119 2.24029L12.1017 2.08717C12.3814 1.60158 12.7826 1.26374 13.2365 1.06318C13.5532 0.920672 13.9016 0.852051 14.25 0.852051C15.0839 0.852051 15.918 1.26374 16.393 2.09247L18.6205 5.94573L25.3663 17.6321C25.8255 18.4239 25.4191 19.3845 24.622 19.6696Z" fill="#CFE900"/>
<path d="M24.6226 19.669C24.4695 19.727 24.3111 19.7534 24.1422 19.7534H21.2708C21.1863 19.7534 21.1071 19.7481 21.028 19.7376H21.0227C20.4473 19.6637 19.9353 19.3206 19.6397 18.8139L15.1425 11.0229C15.0211 10.8171 14.8469 10.6692 14.6516 10.5901C14.203 10.4 13.6382 10.5426 13.3584 11.0176L16.2668 5.98202C16.7894 5.08471 18.0773 5.06888 18.6157 5.94511L18.8797 6.39904C18.8797 6.39904 18.8849 6.40433 18.8849 6.40957L22.6643 12.9601L25.3615 17.6262C25.826 18.4233 25.4196 19.3839 24.6226 19.669Z" fill="#799A07"/>
<path opacity="0.2" d="M18.8849 6.39847C18.4732 5.70702 17.4703 5.71225 17.0638 6.409L14.6516 10.5843C14.203 10.3942 13.6382 10.5368 13.3584 11.0118L16.2668 5.97621C16.7894 5.07885 18.0773 5.06301 18.6157 5.93925L18.8849 6.39847Z" fill="#00002D"/>
<path opacity="0.15" d="M14.25 0.852051L3.5295 19.4849C3.06498 19.1523 2.82746 18.54 2.99111 17.9594V17.9541C3.02278 17.8432 3.06498 17.7324 3.12833 17.6268L5.93116 12.7707L12.0119 2.24029L12.1017 2.08717C12.3814 1.60158 12.7826 1.26374 13.2365 1.06318C13.5585 0.920672 13.9069 0.852051 14.25 0.852051Z" fill="white"/>
</g>
<defs>
<clipPath id="clip0_3001_16491">
<rect width="108" height="18.6811" fill="white" transform="translate(0.5 0.840332)"/>
</clipPath>
</defs>
</svg>
