<svg width="20" height="20" viewBox="0 0 20 20" fill="none" xmlns="http://www.w3.org/2000/svg">
<path fill-rule="evenodd" clip-rule="evenodd" d="M9.74295 2.3125C5.31549 2.3125 1.73633 5.91805 1.73633 10.3786C1.73633 13.9442 4.02962 16.9623 7.21103 18.0306C7.60879 18.1109 7.75449 17.857 7.75449 17.6435C7.75449 17.4565 7.74138 16.8155 7.74138 16.1477C5.51413 16.6285 5.05032 15.1861 5.05032 15.1861C4.69239 14.2513 4.16205 14.011 4.16205 14.011C3.43307 13.5169 4.21515 13.5169 4.21515 13.5169C5.02377 13.5703 5.44808 14.3449 5.44808 14.3449C6.16378 15.5734 7.31707 15.2263 7.78104 15.0126C7.84725 14.4917 8.05948 14.1312 8.28483 13.9309C6.50844 13.7439 4.63945 13.0495 4.63945 9.95119C4.63945 9.0698 4.9574 8.34869 5.46119 7.78786C5.38171 7.58759 5.10326 6.75946 5.54084 5.65108C5.54084 5.65108 6.21688 5.43737 7.74121 6.47904C8.39383 6.30248 9.06687 6.21266 9.74295 6.2119C10.419 6.2119 11.1081 6.30549 11.7445 6.47904C13.269 5.43737 13.9451 5.65108 13.9451 5.65108C14.3826 6.75946 14.104 7.58759 14.0245 7.78786C14.5416 8.34869 14.8464 9.0698 14.8464 9.95119C14.8464 13.0495 12.9775 13.7305 11.1878 13.9309C11.4795 14.1846 11.7312 14.6653 11.7312 15.4265C11.7312 16.5082 11.7181 17.3763 11.7181 17.6433C11.7181 17.857 11.864 18.1109 12.2616 18.0307C15.443 16.9622 17.7363 13.9442 17.7363 10.3786C17.7494 5.91805 14.1571 2.3125 9.74295 2.3125Z" fill="white"/>
</svg>
