<svg width="24" height="18" viewBox="0 0 24 18" fill="none" xmlns="http://www.w3.org/2000/svg">
<path d="M19.9374 2.30945C18.4806 1.65681 16.9183 1.17597 15.2849 0.900569C15.2552 0.895255 15.2255 0.908538 15.2101 0.935104C15.0092 1.284 14.7867 1.73917 14.6308 2.09692C12.874 1.84012 11.1261 1.84012 9.40533 2.09692C9.24947 1.7312 9.01883 1.284 8.81701 0.935104C8.8017 0.909424 8.77197 0.896141 8.74224 0.900569C7.10972 1.17508 5.54747 1.65593 4.08974 2.30945C4.07712 2.31476 4.06631 2.32362 4.0591 2.33513C1.09588 6.6574 0.284129 10.8734 0.682348 15.0372C0.68415 15.0575 0.695862 15.077 0.712079 15.0894C2.66714 16.4912 4.56093 17.3422 6.41959 17.9063C6.44932 17.9151 6.48085 17.9045 6.49977 17.8806C6.93944 17.2944 7.33135 16.6763 7.6674 16.0263C7.68722 15.9882 7.6683 15.9431 7.62776 15.928C7.00611 15.6978 6.41418 15.4171 5.84478 15.0983C5.79974 15.0726 5.79613 15.0097 5.83758 14.9796C5.9574 14.8919 6.07723 14.8007 6.19165 14.7086C6.21237 14.6918 6.2412 14.6883 6.26553 14.6989C10.0063 16.3663 14.056 16.3663 17.7526 14.6989C17.7769 14.6874 17.8058 14.6909 17.8274 14.7077C17.9418 14.7998 18.0616 14.8919 18.1824 14.9796C18.2238 15.0097 18.2211 15.0726 18.1761 15.0983C17.6067 15.4233 17.0147 15.6978 16.3922 15.9271C16.3516 15.9422 16.3336 15.9882 16.3534 16.0263C16.6967 16.6754 17.0886 17.2935 17.5202 17.8797C17.5382 17.9045 17.5706 17.9151 17.6004 17.9063C19.468 17.3422 21.3618 16.4912 23.3169 15.0894C23.334 15.077 23.3448 15.0584 23.3466 15.0381C23.8232 10.2243 22.5484 6.04284 19.9672 2.33601C19.9608 2.32362 19.95 2.31476 19.9374 2.30945ZM8.22599 12.5019C7.09981 12.5019 6.17183 11.4924 6.17183 10.2526C6.17183 9.01291 7.08179 8.0034 8.22599 8.0034C9.37921 8.0034 10.2982 9.02176 10.2802 10.2526C10.2802 11.4924 9.3702 12.5019 8.22599 12.5019ZM15.821 12.5019C14.6948 12.5019 13.7668 11.4924 13.7668 10.2526C13.7668 9.01291 14.6768 8.0034 15.821 8.0034C16.9742 8.0034 17.8932 9.02176 17.8752 10.2526C17.8752 11.4924 16.9742 12.5019 15.821 12.5019Z" fill="white"/>
</svg>
